Coordinates
version=1
nRows=24
nColumns=22
inDegrees=yes

Units are S.I. units (second, meters, Newtons, ...)
If the header above contains a line with 'inDegrees', this indicates whether rotational values are in degrees (yes) or radians (no).

endheader
time	pelvis_tilt	pelvis_list	pelvis_rotation	pelvis_tx	pelvis_ty	pelvis_tz	hip_flexion_r	hip_adduction_r	hip_rotation_r	knee_angle_r	ankle_angle_r	subtalar_angle_r	hip_flexion_l	hip_adduction_l	hip_rotation_l	knee_angle_l	ankle_angle_l	subtalar_angle_l	lumbar_extension	lumbar_bending	lumbar_rotation
      3.81000000	     -9.45088453	      2.96536840	     -0.64278972	      0.25292853	      0.97515982	      0.41207904	     26.24979890	     -7.62369688	     -3.62456663	    -57.80668159	     14.93945764	     -1.44993931	     22.11812296	      8.56931975	     -0.91774576	    -21.89437052	     15.55890939	     -3.71349465	      1.29596456	     -2.78864013	      2.19305493
      3.82000000	     -9.42848570	      2.89289116	     -0.66369367	      0.25670262	      0.97533884	      0.41163453	     26.68578484	     -7.49056409	     -3.46012061	    -56.91880562	     15.69762577	     -1.62631332	     21.86584306	      8.54339156	     -0.87718074	    -21.92134237	     15.74429812	     -3.78516382	      1.27990092	     -2.72086550	      2.06864717
      3.83000000	     -9.38504957	      2.76659363	     -0.67857802	      0.26040752	      0.97552826	      0.41125777	     27.06635668	     -7.27650195	     -3.30238860	    -55.92485023	     16.31969400	     -2.04213412	     21.60762154	      8.45853201	     -0.82238352	    -21.97962885	     15.97439432	     -4.03867564	      1.22850539	     -2.59218627	      1.90434853
      3.84000000	     -9.37825771	      2.70448617	     -0.70603880	      0.26400541	      0.97561499	      0.41094127	     27.50161376	     -7.09982514	     -3.05887412	    -54.90599626	     16.93975729	     -2.15277771	     21.39231266	      8.43038858	     -0.79656747	    -22.02439416	     16.15222178	     -4.10374653	      1.21192207	     -2.54695278	      1.77862589
      3.85000000	     -9.37425458	      2.62526496	     -0.74443102	      0.26753359	      0.97566706	      0.41069733	     27.92718249	     -6.88350993	     -2.79096524	    -53.83606116	     17.46488925	     -2.23668491	     21.19090201	      8.37504514	     -0.78214508	    -22.08514398	     16.35671160	     -4.19580537	      1.19289636	     -2.48406159	      1.65266702
      3.86000000	     -9.37165644	      2.52433175	     -0.79614383	      0.27098024	      0.97568789	      0.41052390	     28.34531917	     -6.62702838	     -2.50289506	    -52.73228625	     17.87938367	     -2.25547080	     21.00940450	      8.28308245	     -0.81208227	    -22.17229911	     16.60245278	     -4.36432442	      1.16611473	     -2.39556890	      1.51611989
      3.87000000	     -9.37517026	      2.45860663	     -0.85655855	      0.27437859	      0.97567555	      0.41038312	     28.77308483	     -6.40457713	     -2.19867891	    -51.62763422	     18.27262575	     -2.17684112	     20.82304149	      8.22644910	     -0.82860913	    -22.23014151	     16.82263049	     -4.47766675	      1.14600615	     -2.35047541	      1.40168101
      3.88000000	     -9.37669439	      2.39892431	     -0.93322812	      0.27773391	      0.97565065	      0.41029111	     29.19822359	     -6.18541521	     -1.89435926	    -50.52452662	     18.61097479	     -2.00667954	     20.63189172	      8.16801525	     -0.86079516	    -22.27695616	     17.05242399	     -4.58235844	      1.12241406	     -2.31237777	      1.30553880
      3.89000000	     -9.37157362	      2.35566388	     -1.01993758	      0.28105494	      0.97563088	      0.41023825	     29.61906597	     -5.98461155	     -1.60041052	    -49.43753218	     18.90350125	     -1.78138693	     20.42075929	      8.12348808	     -0.89274843	    -22.29282554	     17.27370677	     -4.67510779	      1.08985645	     -2.29564205	      1.22689604
      3.90000000	     -9.36548487	      2.33998359	     -1.10428451	      0.28435118	      0.97559236	      0.41019639	     30.04255050	     -5.82702003	     -1.35320537	    -48.37740580	     19.18410461	     -1.72824444	     20.20268767	      8.10915008	     -0.91854417	    -22.29346561	     17.49053327	     -4.70909290	      1.05899964	     -2.31187347	      1.14552687
      3.91000000	     -9.32892119	      2.31084925	     -1.22602930	      0.28763086	      0.97560645	      0.41025172	     30.43695718	     -5.64352118	     -1.12061798	    -47.33850939	     19.36580467	     -1.61075191	     19.95430955	      8.05682959	     -1.04108402	    -22.29400682	     17.73559065	     -4.78058719	      0.99275507	     -2.30978015	      1.08774961
      3.92000000	     -9.28587577	      2.30190403	     -1.34538715	      0.29088560	      0.97563549	      0.41030358	     30.82892830	     -5.49216989	     -0.93497852	    -46.33412119	     19.51077844	     -1.53964871	     19.67958066	      8.03378854	     -1.12201867	    -22.25496712	     17.95037781	     -4.84651736	      0.91959186	     -2.32993708	      1.04706266
      3.93000000	     -9.23183751	      2.29455986	     -1.46920865	      0.29411664	      0.97569079	      0.41038243	     31.21094216	     -5.34712807	     -0.79909429	    -45.36147781	     19.59375194	     -1.50195354	     19.38461429	      8.01203350	     -1.20009244	    -22.19848804	     18.15245395	     -4.91710310	      0.83374563	     -2.35266218	      1.01625903
      3.94000000	     -9.19460135	      2.28759139	     -1.57932994	      0.29729983	      0.97572295	      0.41044921	     31.61264107	     -5.21359459	     -0.72309199	    -44.42551756	     19.62739526	     -1.48537025	     19.10224579	      7.99899756	     -1.23722106	    -22.12915160	     18.33990781	     -4.96754218	      0.76583466	     -2.37601702	      0.98960865
      3.95000000	     -9.15346141	      2.26222894	     -1.68412671	      0.30043440	      0.97577031	      0.41050892	     32.00680179	     -5.06803936	     -0.70469265	    -43.51756840	     19.58768258	     -1.46185123	     18.82044945	      7.96694795	     -1.28138212	    -22.06549406	     18.52667512	     -5.02599921	      0.68859648	     -2.37253207	      0.96139051
      3.96000000	     -9.11720139	      2.21585754	     -1.76844444	      0.30351590	      0.97581691	      0.41053666	     32.39999811	     -4.91647965	     -0.75601307	    -42.63893725	     19.48530226	     -1.42181362	     18.55085542	      7.91689293	     -1.31870641	    -22.01208744	     18.70763811	     -5.09131700	      0.61040142	     -2.34201993	      0.91592271
      3.97000000	     -9.09796896	      2.15246800	     -1.83454657	      0.30653996	      0.97583874	      0.41054044	     32.80708330	     -4.75618643	     -0.85406458	    -41.79321587	     19.33063003	     -1.35964682	     18.30618669	      7.85527847	     -1.32522654	    -21.96906660	     18.88436815	     -5.15010122	      0.54540212	     -2.29105189	      0.86545290
      3.98000000	     -9.09212906	      2.06753572	     -1.88507888	      0.30951535	      0.97584396	      0.41051522	     33.21931237	     -4.58161403	     -0.99446858	    -40.97152116	     19.13029698	     -1.26901149	     18.08565650	      7.77395118	     -1.32965520	    -21.94205757	     19.06369673	     -5.21035902	      0.48883581	     -2.20898840	      0.80311055
      3.99000000	     -9.09747664	      1.97606643	     -1.93185153	      0.31245047	      0.97583310	      0.41050541	     33.63974314	     -4.39817337	     -1.14539991	    -40.18031184	     18.89430509	     -1.15829290	     17.88073475	      7.68501963	     -1.32117674	    -21.91941360	     19.23837800	     -5.26133058	      0.43996644	     -2.12015425	      0.74740845
      4.00000000	     -9.10796317	      1.86767296	     -1.97235338	      0.31536636	      0.97581185	      0.41051898	     34.05526866	     -4.19935377	     -1.32202854	    -39.41253987	     18.65685229	     -1.01207279	     17.69185133	      7.57251193	     -1.33851437	    -21.91569243	     19.41712588	     -5.31816297	      0.39481528	     -2.01216091	      0.67302124
      4.01000000	     -9.12184735	      1.76928250	     -2.02080381	      0.31825746	      0.97578817	      0.41055253	     34.46985059	     -3.99940559	     -1.47339759	    -38.66608901	     18.39201541	     -0.85601497	     17.50101864	      7.47071575	     -1.34133700	    -21.89863376	     19.58620085	     -5.35958647	      0.34931400	     -1.91345243	      0.62240605
      4.02000000	     -9.13496697	      1.69092228	     -2.07702422	      0.32113002	      0.97576699	      0.41062736	     34.87980981	     -3.80687653	     -1.59411731	    -37.94019255	     18.09593423	     -0.72619341	     17.30138330	      7.38898669	     -1.33173103	    -21.86280209	     19.73705998	     -5.38108516	      0.29988645	     -1.84231923	      0.59422520
      4.03000000	     -9.14766234	      1.59496609	     -2.12598458	      0.32399030	      0.97573974	      0.41072666	     35.27035936	     -3.59791229	     -1.72173747	    -37.21920316	     17.79043465	     -0.57569053	     17.11399278	      7.28254812	     -1.34851593	    -21.85100163	     19.89736662	     -5.40380200	      0.24539164	     -1.75123085	      0.54915666
      4.04000000	     -9.16108951	      1.48948954	     -2.16410734	      0.32683898	      0.97569973	      0.41083126	     35.64357784	     -3.38438768	     -1.85098990	    -36.50166790	     17.47900997	     -0.38782700	     16.93528988	      7.16334611	     -1.38600783	    -21.85289675	     20.06526958	     -5.42552243	      0.18700319	     -1.64736325	      0.48442155
